<?xml version="1.0" standalone="no"?>
<svg viewBox="0 0 200 200" xmlns="http://www.w3.org/2000/svg">
  <path fill="#FF0066" d="M39,-60.1C52.1,-52.2,65.3,-44.1,72.7,-32C80,-19.9,81.5,-4,80.1,12.1C78.8,28.3,74.6,44.6,64.8,56.3C55,68,39.5,75,23.4,80C7.2,84.9,-9.7,87.8,-25.6,84.4C-41.5,81,-56.4,71.4,-66.2,58.3C-76.1,45.3,-80.9,28.8,-81.6,12.8C-82.2,-3.2,-78.6,-18.7,-71.4,-31.8C-64.2,-44.9,-53.4,-55.6,-40.9,-63.7C-28.4,-71.8,-14.2,-77.3,-0.6,-76.3C12.9,-75.4,25.9,-67.9,39,-60.1Z" transform="translate(100 100)" />
</svg>
