<svg id="visual" viewBox="0 0 900 600" width="900" height="600" xmlns="http://www.w3.org/2000/svg" xmlns:xlink="http://www.w3.org/1999/xlink" version="1.1"><path d="M0 400L21.5 405.2C43 410.3 86 420.7 128.8 428.7C171.7 436.7 214.3 442.3 257.2 437.7C300 433 343 418 385.8 408.5C428.7 399 471.3 395 514.2 400.7C557 406.3 600 421.7 642.8 426C685.7 430.3 728.3 423.7 771.2 424.3C814 425 857 433 878.5 437L900 441L900 601L878.5 601C857 601 814 601 771.2 601C728.3 601 685.7 601 642.8 601C600 601 557 601 514.2 601C471.3 601 428.7 601 385.8 601C343 601 300 601 257.2 601C214.3 601 171.7 601 128.8 601C86 601 43 601 21.5 601L0 601Z" fill="#d463ff"></path><path d="M0 427L21.5 433.5C43 440 86 453 128.8 451.7C171.7 450.3 214.3 434.7 257.2 428.7C300 422.7 343 426.3 385.8 423.7C428.7 421 471.3 412 514.2 419.8C557 427.7 600 452.3 642.8 455C685.7 457.7 728.3 438.3 771.2 438.5C814 438.7 857 458.3 878.5 468.2L900 478L900 601L878.5 601C857 601 814 601 771.2 601C728.3 601 685.7 601 642.8 601C600 601 557 601 514.2 601C471.3 601 428.7 601 385.8 601C343 601 300 601 257.2 601C214.3 601 171.7 601 128.8 601C86 601 43 601 21.5 601L0 601Z" fill="#e135b9"></path><path d="M0 450L21.5 451.5C43 453 86 456 128.8 455.7C171.7 455.3 214.3 451.7 257.2 449C300 446.3 343 444.7 385.8 451.7C428.7 458.7 471.3 474.3 514.2 485.3C557 496.3 600 502.7 642.8 504.5C685.7 506.3 728.3 503.7 771.2 499.8C814 496 857 491 878.5 488.5L900 486L900 601L878.5 601C857 601 814 601 771.2 601C728.3 601 685.7 601 642.8 601C600 601 557 601 514.2 601C471.3 601 428.7 601 385.8 601C343 601 300 601 257.2 601C214.3 601 171.7 601 128.8 601C86 601 43 601 21.5 601L0 601Z" fill="#d50079"></path><path d="M0 525L21.5 521.2C43 517.3 86 509.7 128.8 502.3C171.7 495 214.3 488 257.2 484.7C300 481.3 343 481.7 385.8 482.3C428.7 483 471.3 484 514.2 488.5C557 493 600 501 642.8 505.8C685.7 510.7 728.3 512.3 771.2 515.3C814 518.3 857 522.7 878.5 524.8L900 527L900 601L878.5 601C857 601 814 601 771.2 601C728.3 601 685.7 601 642.8 601C600 601 557 601 514.2 601C471.3 601 428.7 601 385.8 601C343 601 300 601 257.2 601C214.3 601 171.7 601 128.8 601C86 601 43 601 21.5 601L0 601Z" fill="#b90043"></path><path d="M0 545L21.5 541.5C43 538 86 531 128.8 535.2C171.7 539.3 214.3 554.7 257.2 560C300 565.3 343 560.7 385.8 553.3C428.7 546 471.3 536 514.2 535C557 534 600 542 642.8 549.8C685.7 557.7 728.3 565.3 771.2 564.2C814 563 857 553 878.5 548L900 543L900 601L878.5 601C857 601 814 601 771.2 601C728.3 601 685.7 601 642.8 601C600 601 557 601 514.2 601C471.3 601 428.7 601 385.8 601C343 601 300 601 257.2 601C214.3 601 171.7 601 128.8 601C86 601 43 601 21.5 601L0 601Z" fill="#930016"></path></svg>